<?xml version="1.0" encoding="utf-8"?>
<!-- Generator: Adobe Illustrator 25.2.3, SVG Export Plug-In . SVG Version: 6.00 Build 0)  -->
<svg version="1.1" id="Ebene_1" xmlns="http://www.w3.org/2000/svg" xmlns:xlink="http://www.w3.org/1999/xlink" x="0px" y="0px"
	 viewBox="0 0 231.4 87.9" style="enable-background:new 0 0 231.4 87.9;" xml:space="preserve">
<style type="text/css">
	.st0{fill:#FFFFFF;}
</style>
<g>
	<g>
		<path class="st0" d="M0,73.4h2.1v12.4h6v1.9H0V73.4z"/>
		<path class="st0" d="M15.9,81.4l-4.9-8h2.4l3.5,6h0.1l3.5-6h2.4l-4.9,8v6.2h-2.1V81.4z"/>
		<path class="st0" d="M27.4,80.5c0-4.2,3.1-7.4,7.3-7.4c3.2,0,5.8,1.9,6.7,4.8h-2.2c-0.7-1.7-2.4-2.8-4.5-2.8c-3,0-5.1,2.3-5.1,5.4
			c0,3.1,2.1,5.4,5.1,5.4c2,0,3.8-1.1,4.5-2.8h2.2c-0.9,3-3.5,4.8-6.7,4.8C30.4,87.9,27.4,84.7,27.4,80.5z"/>
		<path class="st0" d="M48.2,73.4h4.6c2.9,0,4.8,1.7,4.8,4.3c0,2.1-1.1,3.7-3.2,4.2l3.7,5.8h-2.5L52.3,82h-2v5.6h-2.1V73.4z
			 M52.8,80.2c1.5,0,2.6-0.9,2.6-2.5c0-1.3-0.9-2.4-2.7-2.4h-2.5v4.9H52.8z"/>
		<path class="st0" d="M68.3,73.4h2.9l5.1,14.2h-2.2L73,84.4h-6.6l-1.1,3.2h-2.1L68.3,73.4z M72.3,82.5l-2.5-7.2h-0.2l-2.5,7.2H72.3
			z"/>
		<path class="st0" d="M92.1,73.4h2.1v5.9H96l4-5.9h2.5l-4.7,6.8l5,7.4h-2.5L96,81.2h-1.8v6.4h-2.1V73.4z"/>
		<path class="st0" d="M107.1,80.5c0-4.2,3.2-7.4,7.3-7.4c4.2,0,7.3,3.2,7.3,7.4c0,4.2-3.2,7.4-7.3,7.4
			C110.3,87.9,107.1,84.7,107.1,80.5z M119.6,80.5c0-3.1-2.2-5.4-5.2-5.4c-3,0-5.2,2.3-5.2,5.4c0,3.1,2.2,5.4,5.2,5.4
			C117.4,85.9,119.6,83.6,119.6,80.5z"/>
		<path class="st0" d="M128.6,73.4h2.1v12.4h6v1.9h-8.1V73.4z"/>
		<path class="st0" d="M143.6,73.4h2.1v12.4h6v1.9h-8.1V73.4z"/>
		<path class="st0" d="M158.5,73.4h8.4v1.9h-6.3v4.1h5.4v1.9h-5.4v4.4h6.5v1.9h-8.6V73.4z"/>
		<path class="st0" d="M174,73.4h2.1v5.9h1.8l4-5.9h2.5l-4.7,6.8l5,7.4H182l-4.2-6.4h-1.8v6.4H174V73.4z"/>
		<path class="st0" d="M193.7,75.3h-4.1v-1.9h10.2v1.9h-4.1v12.3h-2.1V75.3z"/>
		<path class="st0" d="M206.1,85.8h2.1V75.2h-2.1v-1.9h6.2v1.9h-2.1v10.5h2.1v1.9h-6.2V85.8z"/>
		<path class="st0" d="M218.4,73.4h2.2l4.1,12.3h0.2l4.2-12.3h2.3l-5.1,14.2h-2.9L218.4,73.4z"/>
	</g>
	<g>
		<g>
			<path class="st0" d="M0,13C0,5.6,5.3,0,13,0c5.7,0,10.5,3.3,12.2,9.3h-5.7c-1.1-2.6-3.7-4.1-6.5-4.1c-4.5,0-7.5,3.4-7.5,7.8
				c0,4.5,3,7.9,7.5,7.9c3,0,5.5-1.2,6.8-3.9h-6.6v-4.5h12.5C25.5,22.3,18.7,26,13,26C5.3,26,0,20.3,0,13z"/>
			<path class="st0" d="M33.2,0.5h8.6c5.3,0,8.9,3.1,8.9,7.8c0,3.4-1.6,6-4.5,7.3l5.5,9.9h-6.1l-4.6-9h-2.5v9h-5.3V0.5z M41.9,11.6
				c1.9,0,3.3-1.1,3.3-3.2c0-1.6-1.1-3-3.5-3h-3.2v6.2H41.9z"/>
			<path class="st0" d="M58,16.2V0.5h5.3v15.7c0,2.9,1.5,4.7,4.5,4.7c3,0,4.5-1.8,4.5-4.7V0.5h5.3v15.7c0,5.8-3.6,9.8-9.9,9.8
				C61.5,26,58,22,58,16.2z"/>
			<path class="st0" d="M85.9,0.5h8.9c5,0,8.3,3.2,8.3,8c0,4.8-3.5,8.2-8.3,8.2h-3.6v8.8h-5.3V0.5z M94.6,11.7
				c1.9,0,3.2-1.4,3.2-3.2c0-1.8-1.2-3.1-3.2-3.1h-3.4v6.3H94.6z"/>
			<path class="st0" d="M110.3,0.5h8.9c5,0,8.3,3.2,8.3,8c0,4.8-3.5,8.2-8.3,8.2h-3.6v8.8h-5.3V0.5z M119,11.7
				c1.9,0,3.2-1.4,3.2-3.2c0-1.8-1.2-3.1-3.2-3.1h-3.4v6.3H119z"/>
			<path class="st0" d="M134.7,0.5h15.7v5H140v4.8h9v5h-9v5.3h10.8v5h-16.1V0.5z"/>
			<path class="st0" d="M163.4,5.5h-6.7v-5h18.7v5h-6.7v20h-5.3V5.5z"/>
			<path class="st0" d="M187.4,5.5h-6.7v-5h18.7v5h-6.7v20h-5.3V5.5z"/>
			<path class="st0" d="M205.3,12.9c0-7.3,5.6-12.9,13-12.9c7.5,0,13.1,5.7,13.1,12.9c0,7.3-5.5,13-13.1,13
				C210.8,26,205.3,20.3,205.3,12.9z M225.8,12.9c0-4.5-3.3-7.8-7.5-7.8c-4.4,0-7.5,3.3-7.5,7.8c0,4.5,3.2,7.9,7.5,7.9
				C222.6,20.8,225.8,17.5,225.8,12.9z"/>
		</g>
		<g>
			<path class="st0" d="M1.7,36.7h8.6c5.3,0,8.9,3.1,8.9,7.8c0,3.4-1.6,6-4.5,7.3l5.5,9.9h-6.1l-4.6-9H7v9H1.7V36.7z M10.4,47.9
				c1.9,0,3.3-1.1,3.3-3.2c0-1.6-1.1-3-3.5-3H7v6.2H10.4z"/>
			<path class="st0" d="M26.5,52.4V36.7h5.3v15.7c0,2.9,1.5,4.7,4.5,4.7c3,0,4.5-1.8,4.5-4.7V36.7h5.3v15.7c0,5.8-3.6,9.8-9.9,9.8
				C30,62.2,26.5,58.3,26.5,52.4z"/>
			<path class="st0" d="M54.5,36.7h5.3v9.8h9.5v-9.8h5.3v25h-5.3V51.6h-9.5v10.2h-5.3V36.7z"/>
			<path class="st0" d="M83.2,36.7h8.6c5.3,0,8.9,3.1,8.9,7.8c0,3.4-1.6,6-4.5,7.3l5.5,9.9h-6.1l-4.6-9h-2.5v9h-5.3V36.7z
				 M91.9,47.9c1.9,0,3.3-1.1,3.3-3.2c0-1.6-1.1-3-3.5-3h-3.2v6.2H91.9z"/>
		</g>
	</g>
</g>
</svg>
