<?xml version="1.0" encoding="utf-8"?>
<!-- Generator: Adobe Illustrator 25.0.1, SVG Export Plug-In . SVG Version: 6.00 Build 0)  -->
<svg version="1.1" id="Ebene_1" xmlns="http://www.w3.org/2000/svg" xmlns:xlink="http://www.w3.org/1999/xlink" x="0px" y="0px"
	 viewBox="0 0 197.7866 147.139" style="enable-background:new 0 0 197.7866 147.139;" xml:space="preserve">
<g>
	<g>
		<path d="M0.8208,118.8529c0-4.207,3.0581-7.4502,7.4502-7.4502c3.2837,0,6.0542,1.9092,7.0186,5.3359h-3.2632
			c-0.6362-1.5186-2.1138-2.3809-3.7554-2.3809c-2.5859,0-4.2896,1.9297-4.2896,4.4951c0,2.5859,1.7241,4.5557,4.3101,4.5557
			c1.7441,0,3.1602-0.6768,3.8789-2.2363H8.3735v-2.5859h7.1831c-0.1025,5.6025-4.002,7.7363-7.2856,7.7363
			C3.8789,126.3021,0.8208,123.0804,0.8208,118.8529z"/>
		<path d="M19.8706,111.6693h4.9463c3.0166,0,5.1309,1.8066,5.1309,4.4951c0,1.9287-0.9033,3.4268-2.5654,4.207l3.1396,5.6641
			h-3.4888l-2.6475-5.1924h-1.457v5.1924h-3.0581V111.6693z M24.8579,118.0726c1.1079,0,1.9087-0.6562,1.9087-1.8467
			c0-0.9238-0.6362-1.7041-2.0112-1.7041h-1.8267v3.5508H24.8579z"/>
		<path d="M34.1172,120.6791v-9.0098h3.0581v8.9893c0,1.6416,0.8823,2.6885,2.606,2.6885c1.7036,0,2.6064-1.0469,2.6064-2.709
			v-8.9688h3.0581v8.9893c0,3.3457-2.0522,5.6436-5.6646,5.6436C36.1284,126.3021,34.1172,124.0453,34.1172,120.6791z"/>
		<path d="M50.1699,111.6693h5.1104c2.8525,0,4.7817,1.8271,4.7817,4.6182c0,2.7705-2.0317,4.6787-4.7817,4.6787H53.228v5.0693
			h-3.0581V111.6693z M55.1572,118.1136c1.1079,0,1.8267-0.7793,1.8267-1.8262c0-1.0264-0.7188-1.7656-1.8267-1.7656H53.228v3.5918
			H55.1572z"/>
		<path d="M64.1699,111.6693h5.1104c2.8525,0,4.7817,1.8271,4.7817,4.6182c0,2.7705-2.0317,4.6787-4.7817,4.6787H67.228v5.0693
			h-3.0581V111.6693z M69.1572,118.1136c1.1079,0,1.8267-0.7793,1.8267-1.8262c0-1.0264-0.7188-1.7656-1.8267-1.7656H67.228v3.5918
			H69.1572z"/>
		<path d="M78.1699,111.6693h9.0303v2.873H81.228v2.7715h5.1514v2.8525H81.228v3.0166h6.1772v2.8525h-9.2354V111.6693z"/>
		<path d="M94.6333,114.5424h-3.8379v-2.873h10.7129v2.873h-3.8379v11.4932h-3.0371V114.5424z"/>
		<path d="M108.4272,114.5424h-3.8379v-2.873h10.7129v2.873h-3.8379v11.4932h-3.0371V114.5424z"/>
		<path d="M118.6919,118.8324c0-4.207,3.2021-7.4297,7.4912-7.4297c4.3301,0,7.4912,3.2637,7.4912,7.4297
			c0,4.207-3.1816,7.4697-7.4912,7.4697C121.853,126.3021,118.6919,123.0804,118.6919,118.8324z M130.5132,118.8324
			c0-2.5654-1.8672-4.4746-4.3301-4.4746c-2.5039,0-4.3301,1.9092-4.3301,4.4746c0,2.6064,1.8262,4.5146,4.3301,4.5146
			C128.646,123.347,130.5132,121.4388,130.5132,118.8324z"/>
		<path d="M137.9888,111.6693h4.9463c3.0166,0,5.1309,1.8066,5.1309,4.4951c0,1.9287-0.9033,3.4268-2.5654,4.207l3.1396,5.6641
			h-3.4893l-2.6475-5.1924h-1.457v5.1924h-3.0576V111.6693z M142.9761,118.0726c1.1074,0,1.9082-0.6562,1.9082-1.8467
			c0-0.9238-0.6357-1.7041-2.0107-1.7041h-1.8271v3.5508H142.9761z"/>
		<path d="M152.2349,120.6791v-9.0098h3.0586v8.9893c0,1.6416,0.8818,2.6885,2.6055,2.6885c1.7041,0,2.6064-1.0469,2.6064-2.709
			v-8.9688h3.0586v8.9893c0,3.3457-2.0527,5.6436-5.665,5.6436C154.2466,126.3021,152.2349,124.0453,152.2349,120.6791z"/>
		<path d="M168.2876,111.6693h3.0586v5.6445h5.459v-5.6445h3.0371v14.3662h-3.0371v-5.8486h-5.459v5.8486h-3.0586V111.6693z"/>
		<path d="M184.772,111.6693h4.9463c3.0166,0,5.1309,1.8066,5.1309,4.4951c0,1.9287-0.9033,3.4268-2.5654,4.207l3.1396,5.6641
			h-3.4883l-2.6475-5.1924h-1.457v5.1924h-3.0586V111.6693z M189.7593,118.0726c1.1084,0,1.9092-0.6562,1.9092-1.8467
			c0-0.9238-0.6367-1.7041-2.0117-1.7041h-1.8262v3.5508H189.7593z"/>
	</g>
	<g>
		<path d="M35.6743,136.9086h1.1221v6.6787h3.2344v1.0225h-4.3564V136.9086z"/>
		<path d="M44.2422,141.2328l-2.6514-4.3242h1.2764l1.8701,3.2344h0.0771l1.8701-3.2344h1.3203l-2.6514,4.3242v3.377h-1.1113
			V141.2328z"/>
		<path d="M50.4771,140.7592c0-2.2549,1.6611-3.9932,3.9277-3.9932c1.7383,0,3.1133,1.0342,3.6191,2.5967h-1.21
			c-0.3853-0.9355-1.3091-1.5293-2.4092-1.5293c-1.6064,0-2.7617,1.2539-2.7617,2.9258c0,1.6943,1.1553,2.9375,2.7617,2.9375
			c1.0889,0,2.0352-0.583,2.4092-1.54h1.21c-0.4946,1.5957-1.8921,2.6074-3.6191,2.6074
			C52.1274,144.764,50.4771,143.0365,50.4771,140.7592z"/>
		<path d="M61.7056,136.9086h2.5083c1.584,0,2.5742,0.9248,2.5742,2.2998c0,1.1113-0.5938,1.9912-1.7163,2.2666l1.9917,3.1348
			h-1.3423l-1.7935-3.0146h-1.1001v3.0146h-1.1221V136.9086z M64.2139,140.5941c0.814,0,1.4194-0.4727,1.4194-1.375
			c0-0.7148-0.4844-1.2871-1.4746-1.2871h-1.3311v2.6621H64.2139z"/>
		<path d="M72.605,136.9086h1.5732l2.7505,7.7012h-1.1772l-0.6162-1.7383h-3.5425l-0.6162,1.7383h-1.1553L72.605,136.9086z
			 M74.7725,141.849l-1.3643-3.873h-0.0884l-1.3638,3.873H74.7725z"/>
		<path d="M85.4824,136.9086h1.1221v3.2021h0.9683l2.145-3.2021h1.3423l-2.5522,3.6973l2.6846,4.0039h-1.3755l-2.2441-3.4648
			h-0.9683v3.4648h-1.1221V136.9086z"/>
		<path d="M93.5762,140.7592c0-2.2656,1.7051-3.9932,3.9604-3.9932s3.9497,1.749,3.9497,3.9932
			c0,2.2559-1.7051,3.9941-3.9604,3.9941S93.5762,143.0365,93.5762,140.7592z M100.3311,140.7592
			c0-1.6719-1.21-2.9258-2.7944-2.9258c-1.5952,0-2.7944,1.2539-2.7944,2.9258c0,1.6943,1.1992,2.9268,2.7944,2.9268
			C99.1211,143.6859,100.3311,142.4535,100.3311,140.7592z"/>
		<path d="M105.2124,136.9086h1.1221v6.6787h3.2344v1.0225h-4.3564V136.9086z"/>
		<path d="M113.2729,136.9086h1.1221v6.6787h3.2344v1.0225h-4.3564V136.9086z"/>
		<path d="M121.3345,136.9086h4.5322v1.0342h-3.4102v2.2334h2.9375v1.0234h-2.9375v2.376h3.5205v1.0342h-4.6426V136.9086z"/>
		<path d="M129.7144,136.9086h1.1221v3.2021h0.9688l2.1445-3.2021h1.3428l-2.5527,3.6973l2.6846,4.0039h-1.375l-2.2441-3.4648
			h-0.9688v3.4648h-1.1221V136.9086z"/>
		<path d="M140.3608,137.9427h-2.1895v-1.0342h5.4902v1.0342h-2.1895v6.667h-1.1113V137.9427z"/>
		<path d="M147.0913,143.6088h1.1221v-5.6992h-1.1221v-1.001h3.3555v1.001h-1.123v5.6992h1.123v1.001h-3.3555V143.6088z"/>
		<path d="M153.7329,136.9086h1.1992l2.2109,6.6338h0.0879l2.2559-6.6338h1.2432l-2.751,7.7012h-1.5615L153.7329,136.9086z"/>
	</g>
</g>
<g>
	<path d="M63.4001,32.1156c0-6.9073,5.0202-12.2305,12.2312-12.2305c5.3904,0,9.9404,3.1332,11.5238,8.7601h-5.3575
		c-1.0446-2.493-3.4711-3.9084-6.1663-3.9084c-4.2457,0-7.0423,3.1675-7.0423,7.3789c0,4.2457,2.8309,7.4803,7.0766,7.4803
		c2.8638,0,5.1889-1.1118,6.3679-3.6727h-6.2335v-4.2457h11.7925c-0.1686,9.1988-6.5707,12.7028-11.9611,12.7028
		C68.4203,44.3468,63.4001,39.0571,63.4001,32.1156z"/>
</g>
<g>
	<path d="M110.3404,57.5188h8.4073c5.1275,0,8.7195,3.069,8.7195,7.6388c0,3.279-1.5341,5.8251-4.3597,7.1506l5.3376,9.6271h-5.9308
		l-4.4988-8.8252h-2.4765v8.8252h-5.1985V57.5188z M118.8172,68.4012c1.8833,0,3.2443-1.1162,3.2443-3.1392
		c0-1.5696-1.0814-2.8951-3.4188-2.8951h-3.1038v6.0344H118.8172z"/>
</g>
<polygon points="89.5481,90.6079 111.7183,15.2809 111.7183,12.7022 108.3182,12.7022 86.0689,88.2979 86.0689,90.6079 "/>
<path d="M98.8936,3c26.8715,0,48.6551,21.7836,48.6551,48.6551s-21.7836,48.6551-48.6551,48.6551S50.2385,78.5265,50.2385,51.6551
	S72.0221,3,98.8936,3 M98.8936,0C70.4109,0,47.2385,23.1724,47.2385,51.6551s23.1724,51.6551,51.6551,51.6551
	s51.6551-23.1724,51.6551-51.6551S127.3763,0,98.8936,0L98.8936,0z"/>
</svg>
