<?xml version="1.0" encoding="utf-8"?>
<!-- Generator: Adobe Illustrator 25.0.1, SVG Export Plug-In . SVG Version: 6.00 Build 0)  -->
<svg version="1.1" id="Ebene_1" xmlns="http://www.w3.org/2000/svg" xmlns:xlink="http://www.w3.org/1999/xlink" x="0px" y="0px"
	 viewBox="0 0 194.6026 14.9199" style="enable-background:new 0 0 194.6026 14.9199;" xml:space="preserve">
<style type="text/css">
	.st0{fill:#FFFFFF;}
</style>
<g>
	<path class="st0" d="M0,7.4502C0,3.2432,3.0581,0,7.4502,0c3.2837,0,6.0542,1.9092,7.0186,5.3359h-3.2632
		C10.5694,3.8173,9.0918,2.955,7.4502,2.955c-2.5859,0-4.2896,1.9297-4.2896,4.4951c0,2.5859,1.7241,4.5557,4.3101,4.5557
		c1.7441,0,3.1602-0.6768,3.8789-2.2363H7.5527V7.1836h7.1831c-0.1025,5.6025-4.002,7.7363-7.2856,7.7363
		C3.0581,14.8994,0,11.6777,0,7.4502z"/>
	<path class="st0" d="M19.0498,0.2666h4.9463c3.0166,0,5.1309,1.8066,5.1309,4.4951c0,1.9287-0.9033,3.4268-2.5654,4.207
		l3.1396,5.6641h-3.4888l-2.6475-5.1924h-1.457v5.1924h-3.0581V0.2666z M24.0371,6.6699c1.1079,0,1.9087-0.6562,1.9087-1.8467
		c0-0.9238-0.6362-1.7041-2.0112-1.7041h-1.8267v3.5508C22.1079,6.6699,24.0371,6.6699,24.0371,6.6699z"/>
	<path class="st0" d="M33.2964,9.2764V0.2666h3.0581v8.9893c0,1.6416,0.8823,2.6885,2.606,2.6885
		c1.7036,0,2.6064-1.0469,2.6064-2.709V0.2666h3.0581v8.9893c0,3.3457-2.0522,5.6436-5.6646,5.6436
		C35.3076,14.8994,33.2964,12.6426,33.2964,9.2764z"/>
	<path class="st0" d="M49.3491,0.2666h5.1104c2.8525,0,4.7817,1.8271,4.7817,4.6182c0,2.7705-2.0317,4.6787-4.7817,4.6787h-2.0523
		v5.0693h-3.0581V0.2666z M54.3364,6.7109c1.1079,0,1.8267-0.7793,1.8267-1.8262c0-1.0264-0.7188-1.7656-1.8267-1.7656h-1.9292
		v3.5918C52.4072,6.7109,54.3364,6.7109,54.3364,6.7109z"/>
	<path class="st0" d="M63.3491,0.2666h5.1104c2.8525,0,4.7817,1.8271,4.7817,4.6182c0,2.7705-2.0317,4.6787-4.7817,4.6787h-2.0523
		v5.0693h-3.0581V0.2666z M68.3364,6.7109c1.1079,0,1.8267-0.7793,1.8267-1.8262c0-1.0264-0.7188-1.7656-1.8267-1.7656h-1.9292
		v3.5918C66.4072,6.7109,68.3364,6.7109,68.3364,6.7109z"/>
	<path class="st0" d="M77.3491,0.2666h9.0303v2.873h-5.9722v2.7715h5.1514v2.8525h-5.1514v3.0166h6.1772v2.8525H77.349
		L77.3491,0.2666L77.3491,0.2666z"/>
	<path class="st0" d="M93.8125,3.1397h-3.8379v-2.873h10.7129v2.873h-3.8379v11.4932h-3.0371V3.1397z"/>
	<path class="st0" d="M107.6064,3.1397h-3.8379v-2.873h10.7129v2.873h-3.8379v11.4932h-3.0371V3.1397z"/>
	<path class="st0" d="M117.8711,7.4297c0-4.207,3.2021-7.4297,7.4912-7.4297c4.3301,0,7.4912,3.2637,7.4912,7.4297
		c0,4.207-3.1816,7.4697-7.4912,7.4697C121.0322,14.8994,117.8711,11.6777,117.8711,7.4297z M129.6924,7.4297
		c0-2.5654-1.8672-4.4746-4.3301-4.4746c-2.5039,0-4.3301,1.9092-4.3301,4.4746c0,2.6064,1.8262,4.5146,4.3301,4.5146
		C127.8252,11.9443,129.6924,10.0361,129.6924,7.4297z"/>
	<path class="st0" d="M137.168,0.2666h4.9463c3.0166,0,5.1309,1.8066,5.1309,4.4951c0,1.9287-0.9033,3.4268-2.5654,4.207
		l3.1396,5.6641h-3.4893l-2.6475-5.1924h-1.457v5.1924h-3.0576V0.2666z M142.1553,6.6699c1.1074,0,1.9082-0.6562,1.9082-1.8467
		c0-0.9238-0.6357-1.7041-2.0107-1.7041h-1.8271v3.5508C140.2257,6.6699,142.1553,6.6699,142.1553,6.6699z"/>
	<path class="st0" d="M151.4141,9.2764V0.2666h3.0586v8.9893c0,1.6416,0.8818,2.6885,2.6055,2.6885
		c1.7041,0,2.6064-1.0469,2.6064-2.709V0.2666h3.0586v8.9893c0,3.3457-2.0527,5.6436-5.665,5.6436
		C153.4258,14.8994,151.4141,12.6426,151.4141,9.2764z"/>
	<path class="st0" d="M167.4668,0.2666h3.0586v5.6445h5.459V0.2666h3.0371v14.3662h-3.0371V8.7842h-5.459v5.8486h-3.0586V0.2666z"/>
	<path class="st0" d="M183.9512,0.2666h4.9463c3.0166,0,5.1309,1.8066,5.1309,4.4951c0,1.9287-0.9033,3.4268-2.5654,4.207
		l3.1396,5.6641h-3.4883l-2.6475-5.1924h-1.457v5.1924h-3.0586L183.9512,0.2666L183.9512,0.2666z M188.9385,6.6699
		c1.1084,0,1.9092-0.6562,1.9092-1.8467c0-0.9238-0.6367-1.7041-2.0117-1.7041h-1.8262v3.5508
		C187.0098,6.6699,188.9385,6.6699,188.9385,6.6699z"/>
</g>
</svg>
