<?xml version="1.0" encoding="utf-8"?>
<!-- Generator: Adobe Illustrator 25.0.1, SVG Export Plug-In . SVG Version: 6.00 Build 0)  -->
<svg version="1.1" id="Ebene_1" xmlns="http://www.w3.org/2000/svg" xmlns:xlink="http://www.w3.org/1999/xlink" x="0px" y="0px"
	 viewBox="0 0 103.3102 103.3102" style="enable-background:new 0 0 103.3102 103.3102;" xml:space="preserve">
<style type="text/css">
	.st0{fill:#020203;}
</style>
<g>
	<path class="st0" d="M16.1616,32.1156c0-6.9073,5.0202-12.2305,12.2312-12.2305c5.3904,0,9.9404,3.1332,11.5238,8.7601h-5.3575
		c-1.0446-2.493-3.4711-3.9084-6.1663-3.9084c-4.2457,0-7.0423,3.1675-7.0423,7.3789c0,4.2457,2.8309,7.4803,7.0766,7.4803
		c2.8638,0,5.1889-1.1118,6.3679-3.6727h-6.2335v-4.2457H40.354c-0.1686,9.1988-6.5707,12.7028-11.9611,12.7028
		C21.1818,44.3468,16.1616,39.0571,16.1616,32.1156z"/>
</g>
<g>
	<path class="st0" d="M63.1019,57.5188h8.4073c5.1275,0,8.7195,3.069,8.7195,7.6388c0,3.279-1.5341,5.8251-4.3597,7.1506
		l5.3376,9.6271h-5.9308l-4.4988-8.8252h-2.4765v8.8252H63.102L63.1019,57.5188L63.1019,57.5188z M71.5787,68.4012
		c1.8833,0,3.2443-1.1162,3.2443-3.1392c0-1.5696-1.0814-2.8951-3.4188-2.8951h-3.1038v6.0344L71.5787,68.4012L71.5787,68.4012z"/>
</g>
<polygon class="st0" points="42.3096,90.6079 64.4798,15.2809 64.4798,12.7022 61.0797,12.7022 38.8304,88.2979 38.8304,90.6079 "/>
<path class="st0" d="M51.6551,3c26.8715,0,48.6551,21.7836,48.6551,48.6551s-21.7836,48.6551-48.6551,48.6551S3,78.5265,3,51.6551
	S24.7836,3,51.6551,3 M51.6551,0C23.1724,0,0,23.1724,0,51.6551s23.1724,51.6551,51.6551,51.6551s51.6551-23.1724,51.6551-51.6551
	S80.1378,0,51.6551,0L51.6551,0z"/>
</svg>
