<?xml version="1.0" encoding="utf-8"?>
<!-- Generator: Adobe Illustrator 25.0.1, SVG Export Plug-In . SVG Version: 6.00 Build 0)  -->
<svg version="1.1" id="Ebene_1" xmlns="http://www.w3.org/2000/svg" xmlns:xlink="http://www.w3.org/1999/xlink" x="0px" y="0px"
	 viewBox="0 0 460.6 175" style="enable-background:new 0 0 460.6 175;" xml:space="preserve">
<style type="text/css">
	.st0{fill:#FFFFFF;}
</style>
<g>
	<path class="st0" d="M0,146h4.1v24.6H16v3.8H0V146z"/>
	<path class="st0" d="M31.6,162L21.8,146h4.7l6.9,11.9h0.3l6.9-11.9h4.9L35.6,162v12.4h-4.1V162z"/>
	<path class="st0" d="M54.5,160.2c0-8.3,6.1-14.7,14.5-14.7c6.4,0,11.5,3.8,13.3,9.6h-4.5c-1.4-3.4-4.8-5.6-8.9-5.6
		c-5.9,0-10.2,4.6-10.2,10.8c0,6.2,4.3,10.8,10.2,10.8c4,0,7.5-2.1,8.9-5.7h4.5c-1.8,5.9-7,9.6-13.3,9.6
		C60.6,175,54.5,168.6,54.5,160.2z"/>
	<path class="st0" d="M95.9,146h9.2c5.8,0,9.5,3.4,9.5,8.5c0,4.1-2.2,7.3-6.3,8.3l7.3,11.5h-4.9l-6.6-11.1H100v11.1h-4.1L95.9,146
		L95.9,146z M105.1,159.6c3,0,5.2-1.7,5.2-5.1c0-2.6-1.8-4.7-5.4-4.7H100v9.8H105.1z"/>
	<path class="st0" d="M136,146h5.8l10.1,28.4h-4.3l-2.3-6.4h-13l-2.3,6.4h-4.3L136,146z M144,164.2l-5-14.3h-0.3l-5,14.3H144z"/>
	<path class="st0" d="M183.4,146h4.1v11.8h3.6L199,146h4.9l-9.4,13.6l9.9,14.7h-5.1l-8.3-12.8h-3.6v12.8h-4.1L183.4,146L183.4,146z"
		/>
	<path class="st0" d="M213.2,160.2c0-8.3,6.3-14.7,14.6-14.7c8.3,0,14.5,6.4,14.5,14.7c0,8.3-6.3,14.7-14.6,14.7
		C219.5,174.9,213.2,168.6,213.2,160.2z M238.1,160.2c0-6.2-4.5-10.8-10.3-10.8c-5.9,0-10.3,4.6-10.3,10.8c0,6.2,4.4,10.8,10.3,10.8
		C233.7,171,238.1,166.5,238.1,160.2z"/>
	<path class="st0" d="M256.1,146h4.1v24.6h11.9v3.8h-16V146z"/>
	<path class="st0" d="M285.8,146h4.1v24.6h11.9v3.8h-16V146z"/>
	<path class="st0" d="M315.5,146h16.7v3.8h-12.6v8.2h10.8v3.8h-10.8v8.8h13v3.8h-17.1L315.5,146L315.5,146z"/>
	<path class="st0" d="M346.3,146h4.1v11.8h3.6l7.9-11.8h4.9l-9.4,13.6l9.9,14.7h-5.1l-8.3-12.8h-3.6v12.8h-4.1L346.3,146L346.3,146z
		"/>
	<path class="st0" d="M385.5,149.8h-8.1V146h20.2v3.8h-8.1v24.6h-4.1L385.5,149.8L385.5,149.8z"/>
	<path class="st0" d="M410.3,170.7h4.1v-21h-4.1V146h12.4v3.7h-4.1v21h4.1v3.7h-12.4V170.7z"/>
	<path class="st0" d="M434.8,146h4.4l8.1,24.4h0.3L456,146h4.6l-10.1,28.4h-5.8L434.8,146z"/>
</g>
<g>
	<g>
		<path class="st0" d="M0,25.8C0,11.2,10.6,0,25.8,0c11.4,0,21,6.6,24.3,18.5H38.9c-2.2-5.3-7.3-8.3-13-8.3c-9,0-14.9,6.7-14.9,15.6
			c0,9,6,15.8,14.9,15.8c6.1,0,11-2.3,13.5-7.8H26.2v-9h24.9c-0.4,19.4-13.9,26.8-25.3,26.8C10.6,51.7,0,40.5,0,25.8z"/>
		<path class="st0" d="M66,0.9h17.2c10.5,0,17.8,6.3,17.8,15.6c0,6.7-3.1,11.9-8.9,14.6L103,50.7H90.9l-9.2-18h-5.1v18H66
			C66,50.7,66,0.9,66,0.9z M83.3,23.1c3.8,0,6.6-2.3,6.6-6.4c0-3.2-2.2-5.9-7-5.9h-6.3v12.3H83.3z"/>
		<path class="st0" d="M115.4,32.2V0.9H126v31.2c0,5.7,3.1,9.3,9,9.3c5.9,0,9-3.6,9-9.4V0.9h10.6v31.2c0,11.6-7.1,19.6-19.6,19.6
			C122.4,51.7,115.4,43.8,115.4,32.2z"/>
		<path class="st0" d="M171.1,0.9h17.7c9.9,0,16.6,6.3,16.6,16c0,9.6-7,16.2-16.6,16.2h-7.1v17.6h-10.6V0.9z M188.4,23.3
			c3.8,0,6.3-2.7,6.3-6.3c0-3.6-2.5-6.1-6.3-6.1h-6.7v12.5C181.7,23.3,188.4,23.3,188.4,23.3z"/>
		<path class="st0" d="M219.6,0.9h17.7c9.9,0,16.6,6.3,16.6,16c0,9.6-7,16.2-16.6,16.2h-7.1v17.6h-10.6V0.9z M236.9,23.3
			c3.8,0,6.3-2.7,6.3-6.3c0-3.6-2.5-6.1-6.3-6.1h-6.7v12.5C230.2,23.3,236.9,23.3,236.9,23.3z"/>
		<path class="st0" d="M268.1,0.9h31.3v10h-20.7v9.6h17.9v9.9h-17.9v10.5h21.4v9.9h-32L268.1,0.9L268.1,0.9z"/>
		<path class="st0" d="M325.2,10.9h-13.3v-10h37.2v10h-13.3v39.9h-10.5C325.2,50.7,325.2,10.9,325.2,10.9z"/>
		<path class="st0" d="M373,10.9h-13.3v-10h37.2v10h-13.3v39.9H373V10.9z"/>
		<path class="st0" d="M408.6,25.8c0-14.6,11.1-25.8,26-25.8c15,0,26,11.3,26,25.8c0,14.6-11,25.9-26,25.9
			C419.6,51.7,408.6,40.5,408.6,25.8z M449.6,25.8c0-8.9-6.5-15.5-15-15.5c-8.7,0-15,6.6-15,15.5c0,9,6.3,15.7,15,15.7
			C443.1,41.4,449.6,34.8,449.6,25.8z"/>
	</g>
	<g>
		<path class="st0" d="M3.4,73.1h17.2c10.5,0,17.8,6.3,17.8,15.6c0,6.7-3.1,11.9-8.9,14.6l10.9,19.6H28.3l-9.2-18H14v18H3.4V73.1z
			 M20.7,95.3c3.8,0,6.6-2.3,6.6-6.4c0-3.2-2.2-5.9-7-5.9H14v12.3C14,95.3,20.7,95.3,20.7,95.3z"/>
		<path class="st0" d="M52.8,104.3V73.1h10.6v31.2c0,5.7,3.1,9.3,9,9.3c5.9,0,9-3.6,9-9.4V73.1h10.6v31.2c0,11.6-7.1,19.6-19.6,19.6
			C59.8,123.8,52.8,116,52.8,104.3z"/>
		<path class="st0" d="M108.5,73.1h10.6v19.6H138V73.1h10.5v49.8H138v-20.3h-18.9v20.3h-10.6V73.1z"/>
		<path class="st0" d="M165.6,73.1h17.2c10.5,0,17.8,6.3,17.8,15.6c0,6.7-3.1,11.9-8.9,14.6l10.9,19.6h-12.1l-9.2-18h-5.1v18h-10.6
			L165.6,73.1L165.6,73.1z M182.9,95.3c3.8,0,6.6-2.3,6.6-6.4c0-3.2-2.2-5.9-7-5.9h-6.3v12.3C176.2,95.3,182.9,95.3,182.9,95.3z"/>
	</g>
</g>
</svg>
